<svg width="24" height="24" viewBox="0 0 24 24" fill="none" xmlns="http://www.w3.org/2000/svg">
<path d="M20.019 1.83591C18.4668 3.38807 17.3444 5.32158 15.8274 6.89477C14.6572 8.10825 13.539 9.42423 12.4729 10.7311C11.638 11.7545 10.4767 12.3944 9.61219 13.3508C7.97428 15.163 5.80715 16.3293 4.05948 18.0122C3.69903 18.3593 3.26617 18.7426 2.84294 19.012C2.62778 19.1489 2.44689 19.646 2.56591 19.289" stroke="black" stroke-width="3" stroke-linecap="round"/>
<path d="M2 3C2.50058 3.06257 3.10119 3.75267 3.40926 4.10813C4.30084 5.13688 5.46203 6.08344 6.51684 6.95073C8.14287 8.28769 9.43874 9.97841 11.0578 11.323C11.9197 12.0389 12.7382 12.6599 13.5029 13.4911C14.7469 14.8433 15.6927 16.4759 16.9839 17.7671C17.7988 18.582 19.0646 18.9655 19.9951 19.5859" stroke="black" stroke-width="3" stroke-linecap="round"/>
</svg>
