<svg width="18" height="18" viewBox="0 0 18 18" fill="none" xmlns="http://www.w3.org/2000/svg">
<path opacity="0.5" d="M0.490234 8.94922C0.490234 9.35938 0.633464 9.71094 0.919922 10.0039C1.21289 10.2904 1.56445 10.4336 1.97461 10.4336H7.39453V15.8535C7.39453 16.2572 7.53776 16.6022 7.82422 16.8887C8.11068 17.1816 8.45898 17.3281 8.86914 17.3281C9.2793 17.3281 9.6276 17.1816 9.91406 16.8887C10.207 16.6022 10.3535 16.2572 10.3535 15.8535V10.4336H15.7734C16.1771 10.4336 16.5221 10.2904 16.8086 10.0039C17.1016 9.71094 17.248 9.35938 17.248 8.94922C17.248 8.53906 17.1016 8.19076 16.8086 7.9043C16.5221 7.61133 16.1771 7.46484 15.7734 7.46484H10.3535V2.05469C10.3535 1.64453 10.207 1.29622 9.91406 1.00977C9.6276 0.716797 9.2793 0.570312 8.86914 0.570312C8.45898 0.570312 8.11068 0.716797 7.82422 1.00977C7.53776 1.29622 7.39453 1.64453 7.39453 2.05469V7.46484H1.97461C1.56445 7.46484 1.21289 7.61133 0.919922 7.9043C0.633464 8.19076 0.490234 8.53906 0.490234 8.94922Z" fill="black"/>
</svg>
