<svg width="24" height="24" viewBox="0 0 24 24" fill="none" xmlns="http://www.w3.org/2000/svg">
<path d="M9.02259 6C8.63218 6.0488 8.44025 6.49285 8.23889 6.7837C7.58506 7.72812 6.84984 8.39911 5.87112 9.0014C5.19117 9.41983 4.54296 9.96417 3.77014 10.202C3.50603 10.2832 1.92668 11.0887 2.00265 11.1191C3.50808 11.7212 4.45262 13.7797 5.78775 14.7041C6.85003 15.4395 8.29138 16.9088 9.02259 18.0056" stroke="black" stroke-width="3" stroke-linecap="round"/>
<path d="M2.71967 11.4025C5.95401 11.4025 9.6035 11.9712 12.791 12.5364C15.1139 12.9482 17.5601 13.5035 19.9277 13.5035C20.5921 13.5035 21.0617 13.5202 21.6285 13.8036" stroke="black" stroke-width="3" stroke-linecap="round"/>
</svg>
