<svg width="18" height="17" viewBox="0 0 18 17" fill="none" xmlns="http://www.w3.org/2000/svg">
<path d="M0.490234 8.56085C0.490234 8.97101 0.633464 9.32257 0.919922 9.61554C1.21289 9.902 1.56445 10.0452 1.97461 10.0452H7.39453V15.4651C7.39453 15.8688 7.53776 16.2138 7.82422 16.5003C8.11068 16.7933 8.45898 16.9398 8.86914 16.9398C9.2793 16.9398 9.6276 16.7933 9.91406 16.5003C10.207 16.2138 10.3535 15.8688 10.3535 15.4651V10.0452H15.7734C16.1771 10.0452 16.5221 9.902 16.8086 9.61554C17.1016 9.32257 17.248 8.97101 17.248 8.56085C17.248 8.1507 17.1016 7.80239 16.8086 7.51593C16.5221 7.22296 16.1771 7.07648 15.7734 7.07648H10.3535V1.66632C10.3535 1.25616 10.207 0.907857 9.91406 0.621399C9.6276 0.32843 9.2793 0.181946 8.86914 0.181946C8.45898 0.181946 8.11068 0.32843 7.82422 0.621399C7.53776 0.907857 7.39453 1.25616 7.39453 1.66632V7.07648H1.97461C1.56445 7.07648 1.21289 7.22296 0.919922 7.51593C0.633464 7.80239 0.490234 8.1507 0.490234 8.56085Z" fill="black"/>
</svg>
