<svg width="13" height="12" viewBox="0 0 13 12" fill="none" xmlns="http://www.w3.org/2000/svg">
<path d="M6.94643 3C6.94643 3.80001 7.07575 4.67525 6.67163 5.3969C6.29063 6.07725 6.61619 7.12265 6.15255 7.70219C5.95561 7.94837 6.12202 8.88539 6.12202 9.17545C6.12202 9.60365 5.98462 9.96509 5.98462 10.4197" stroke="#00969F" stroke-width="2" stroke-linecap="round"/>
<path d="M2 8.08387C2.42541 8.0366 3.017 7.62617 3.42745 7.46556C4.05059 7.22172 4.69854 6.9407 5.29764 6.64115C6.01103 6.28445 6.74285 5.99852 7.435 5.603C8.16503 5.18584 8.83116 4.86459 9.5571 4.54196C10.0638 4.31675 10.9346 4.22961 11.2059 3.68701" stroke="#00969F" stroke-width="2" stroke-linecap="round"/>
<path d="M2.96167 3.54961C4.15554 4.89271 5.77935 5.92633 7.28983 6.91595C7.83049 7.27018 8.20862 7.94361 8.73254 8.2518C9.13898 8.49088 9.57977 8.64868 9.96916 8.90827" stroke="#00969F" stroke-width="2" stroke-linecap="round"/>
</svg>
