<svg width="71" height="44" viewBox="0 0 71 44" fill="none" xmlns="http://www.w3.org/2000/svg">
<path d="M57.0518 3.6049C50.4322 2.31103 43.4041 3.42349 36.7149 3.98384C34.634 4.15816 32.2897 4.36623 30.2148 3.91697C28.4883 3.54316 26.6128 2.80245 24.893 2.80245C22.9683 2.80245 21.0423 2 19.0897 2C17.9071 2 16.7245 2 15.5418 2C13.1851 2 10.8283 2 8.47148 2C7.60563 2 6.73978 2 5.87394 2C4.96685 2 4.76116 2.7061 4.062 3.6049C2.26768 5.91158 2.42031 11.2405 2.13602 14.6163C1.77292 18.9279 2.24397 23.4032 2.31341 27.6785C2.36211 30.6768 3.67123 35.9072 4.82225 37.932C6.65027 41.1478 9.0438 40.8631 11.4365 41.5208C14.8752 42.466 18.6999 41.7214 22.1561 41.7214C25.5525 41.7214 28.9232 41.3201 32.3181 41.3201C39.8911 41.3201 47.4641 41.3201 55.0371 41.3201C57.1532 41.3201 59.3051 40.9189 61.3345 40.9189C62.8582 40.9189 64.4486 40.0081 65.9468 39.7152C66.6742 39.5731 67.1316 37.6499 67.6447 36.9067C68.3569 35.8749 68.3176 34.8362 68.633 33.5185C69.2391 30.9864 68.9117 27.2384 68.9117 24.4687" stroke="black" stroke-width="3" stroke-linecap="round"/>
<path d="M51.749 21.9365C53.559 22.1628 53.1485 25.7041 55.5166 25.7041C55.8668 25.7041 57.4943 22.5021 57.7772 21.9365" stroke="black" stroke-width="3" stroke-linecap="round"/>
</svg>
