<svg width="33" height="31" viewBox="0 0 33 31" fill="none" xmlns="http://www.w3.org/2000/svg">
<path d="M15.4968 16C12.5015 16 9.91953 13.3877 10.0019 10.3243C10.0828 7.31725 14.3821 2 17.5117 2C19.5084 2 22.5602 5.69218 23.3933 7.33934C24.1445 8.8247 24.2653 11.1609 23.3729 12.5946C21.2855 15.9486 18.5411 14.8649 15.4968 14.8649" stroke="black" stroke-width="3" stroke-linecap="round"/>
<path d="M16 7C16.1172 8.66066 17 10.3636 17 12" stroke="black" stroke-width="3" stroke-linecap="round"/>
<path d="M9.70041 16.1351C7.59391 16.1351 5.17088 15.7764 3.16349 16.5135C1.477 17.1328 2.011 22.2713 2.39321 23.6607C3.15999 26.4479 4.35228 29 7.45204 29C10.4802 29 12.5609 23.1371 11.8655 20.5916C11.1009 17.793 10.1475 15 7.07731 15" stroke="black" stroke-width="3" stroke-linecap="round"/>
<path d="M6 21.4459C7.49994 20.0453 9.91659 22.222 8.64055 24.137C7.4415 25.9364 5.15831 26 8.8376 26" stroke="black" stroke-width="3" stroke-linecap="round"/>
<path d="M22.5822 17.0983C19.3079 17.4627 18.5407 20.7753 19.2348 23.5976C20.2235 27.6174 23.058 28.7602 26.6735 27.5302C30.3332 26.2852 31.6777 21.9141 30.6821 18.2988C30.0874 16.1395 27.5768 13 25.1857 13" stroke="black" stroke-width="3" stroke-linecap="round"/>
<path d="M25.2527 19C26.7957 19.1437 26.6219 20.8446 26.4823 21.7806C26.4176 22.2146 25.8187 23.0367 25.4383 23.3556C25.1595 23.5892 23.8841 23.55 24.2784 23.55C28.2437 23.55 27.6379 26 24 26" stroke="black" stroke-width="3" stroke-linecap="round"/>
</svg>
