<svg width="31" height="31" viewBox="0 0 31 31" fill="none" xmlns="http://www.w3.org/2000/svg">
<g opacity="0.5">
<path d="M4.36111 6.6912C6.06597 6.5841 11.9167 4.81042 11.9167 7.40319C11.9167 8.79082 10.0265 14.2857 12.1528 14.2857C13.6838 14.2857 19 13.9732 19 15.7097C19 18.6955 18.0556 21.5327 18.0556 24.2534C18.0556 24.9186 18.4269 27.5289 17.5833 27.576C15.5875 27.6875 13.6514 28.1436 11.7068 28.499C9.22972 28.9517 6.13763 29 3.65278 29C2.10942 29 2 13.5939 2 11.4378" stroke="black" stroke-width="3" stroke-linecap="round"/>
<path d="M12 2.45098C14.5337 2.45098 16.9285 2 19.4674 2C23.0995 2 21.4318 2.11312 21.3019 4.2549C21.1876 6.13989 20.6874 7.86275 22.9297 7.86275C24.1534 7.86275 27.1571 6.72237 28.175 7.51198C29.4821 8.52596 28.8865 12.7022 28.7176 14.1765C28.5608 15.545 28.2292 19.1968 27.4515 20.1394C26.7523 20.987 27.9081 24.549 26.1854 24.549C24.3216 24.549 22.6147 25 20.8368 25" stroke="black" stroke-width="3" stroke-linecap="round"/>
<path d="M22 2C23.261 3.24544 24.5202 5.17789 26 6" stroke="black" stroke-width="3" stroke-linecap="round"/>
<path d="M13 7C14.8898 8.94023 16.8313 11.6002 18 14" stroke="black" stroke-width="3" stroke-linecap="round"/>
</g>
</svg>
