<svg width="28" height="39" viewBox="0 0 28 39" fill="none" xmlns="http://www.w3.org/2000/svg">
<path d="M2.24679 5.02662C2.24679 8.17508 0.669574 14.7408 5.4896 15.812C9.77826 16.765 11.2728 10.2322 10.3658 7.28457C9.8421 5.58247 9.194 2 6.78672 2C4.37229 2 2.67917 2.91423 2.67917 5.45899" stroke="black" stroke-width="3" stroke-linecap="round"/>
<path d="M5.70557 17.5655C5.70557 20.8494 5.27319 24.0037 5.27319 27.2939C5.27319 29.3887 4.84082 35.6581 4.84082 33.5633" stroke="black" stroke-width="3" stroke-linecap="round"/>
<path d="M14.7856 4.16187C14.7856 6.56292 14.8044 9.33988 15.8906 11.5122C17.0881 13.9073 17.2562 13.8593 19.5418 14.8751C25.4491 17.5006 26.0274 6.87902 26.0274 3.72949" stroke="black" stroke-width="3" stroke-linecap="round"/>
<path d="M19.9741 3.29712C19.9741 9.78273 19.9741 16.2683 19.9741 22.754C19.9741 24.9238 19.9741 27.0937 19.9741 29.2636C19.9741 31.6521 19.3669 34.943 20.4065 37.0223" stroke="black" stroke-width="3" stroke-linecap="round"/>
</svg>
