<svg width="203" height="242" viewBox="0 0 203 242" fill="none" xmlns="http://www.w3.org/2000/svg">
<path d="M39.9907 144.508C37.3512 147.148 35.6757 153.901 35.515 157.438C35.0908 166.769 34.0506 175.849 35.4045 185.176C36.5343 192.959 37.8388 201.617 41.8694 208.55C46.0649 215.766 50.9708 222.127 56.8989 228.055C60.3528 231.509 64.1885 233.429 68.5579 235.514C72.0997 237.205 76.7456 239.775 80.6865 240.432C93.6513 242.593 107.354 243.873 120.498 242.587C126.669 241.983 132.643 237.509 137.931 234.547C143.461 231.451 149.063 227.92 154.315 224.353C163.827 217.891 167.397 207.803 170.035 197.25C170.886 193.844 171.328 190.431 172.162 187C172.67 184.915 172.992 181.247 172.743 179.126C172.076 173.457 170.597 168.248 169.289 162.687C168.726 160.295 167.491 156.949 165.918 155.062C162.961 151.514 161.474 146.376 159.012 142.436C156.048 137.694 152.251 133.013 148.347 129.037C144.68 125.301 141.528 121.143 137.02 118.317C130.979 114.53 125.452 113.852 118.564 113.675C110.63 113.472 102.341 112.197 94.4728 113.924C85.4786 115.898 77.1608 118.844 70.0774 124.837C65.6395 128.592 61.0281 131.925 56.8989 136.054" stroke="black" stroke-width="3" stroke-linecap="round"/>
<path d="M70.3261 132.076C69.8298 133.895 66.8335 135.813 65.0492 136.275C60.0685 137.566 52.6386 136.818 47.6712 136.275C44.1955 135.895 40.1533 135.112 37.2832 132.96C36.3413 132.253 35.488 131.068 34.5204 130.584" stroke="black" stroke-width="3" stroke-linecap="round"/>
<path d="M44.9637 114.173C51.358 118.6 58.8082 120.709 66.5687 121.107C71.373 121.354 75.303 120.264 79.7748 119.146" stroke="black" stroke-width="3" stroke-linecap="round"/>
<path d="M142.435 132.076C144.035 131.898 145.892 128.843 146.966 127.793C150.392 124.445 153.672 120.906 156.912 117.378C162.519 111.269 170.497 105.291 174.262 97.7619" stroke="black" stroke-width="3" stroke-linecap="round"/>
<path d="M64.3585 155.449C64.3585 157.702 68.7734 162.021 70.6024 163.185C73.4644 165.006 77.5458 166.389 80.9905 166.389C82.8585 166.389 84.6036 166.682 86.2398 166.887C87.0654 166.99 87.2527 167.827 88.229 167.881C89.233 167.937 90.1141 168.379 91.2128 168.379" stroke="black" stroke-width="3" stroke-linecap="round"/>
<path d="M110.608 169.373C116.371 170.014 121.209 169.766 126.632 167.274C130.634 165.434 134.813 162.797 138.954 161.417" stroke="black" stroke-width="3" stroke-linecap="round"/>
<path d="M115.581 175.341C115.581 177.545 116.575 179.134 116.575 181.309" stroke="black" stroke-width="3" stroke-linecap="round"/>
<path d="M113.094 184.292C113.819 191.545 127.767 187.522 130.5 184.79" stroke="black" stroke-width="3" stroke-linecap="round"/>
<path d="M71.3208 185.784C75.8658 189.824 81.9951 188.306 84.7479 182.8" stroke="black" stroke-width="3" stroke-linecap="round"/>
<path d="M98.6723 175.341C98.3052 178.645 95.0207 182.414 93.202 185.066C90.8061 188.56 88.6549 191.935 86.8476 195.73C85.2773 199.028 90.9123 201.05 93.202 202.195" stroke="black" stroke-width="3" stroke-linecap="round"/>
<path d="M60.3801 194.238C66.4657 200.324 67.8396 208.904 67.8396 217.114" stroke="black" stroke-width="3" stroke-linecap="round"/>
<path d="M149.397 195.233C149.273 196.353 148.174 197.259 147.795 198.327C146.943 200.727 146.266 203.183 145.419 205.566C144.556 207.993 144.424 211.05 144.424 213.633" stroke="black" stroke-width="3" stroke-linecap="round"/>
<path d="M102.651 145.006C104.206 145.472 104.52 146.995 106.381 146.995C107.503 146.995 108.185 147.027 109.116 147.492" stroke="black" stroke-width="3" stroke-linecap="round"/>
<path d="M110.11 142.022C110.11 143.267 111.136 143.079 111.602 144.011" stroke="black" stroke-width="3" stroke-linecap="round"/>
<path d="M47.4502 179.817C47.4502 182.321 49.0892 187.101 51.4286 188.271" stroke="black" stroke-width="3" stroke-linecap="round"/>
<path d="M49.9368 179.319C50.3325 179.369 51.2523 181.774 51.4287 182.303" stroke="black" stroke-width="3" stroke-linecap="round"/>
<path d="M155.365 172.357C156.304 173.413 156.074 175.161 156.857 176.335" stroke="black" stroke-width="3" stroke-linecap="round"/>
<path d="M158.349 174.844C159.197 175.786 159.343 176.619 159.343 177.827" stroke="black" stroke-width="3" stroke-linecap="round"/>
<path d="M90.2181 215.622C94.5332 215.622 97.9723 216.47 102.153 214.379C105.292 212.81 108.038 212.307 109.613 209.157" stroke="black" stroke-width="3" stroke-linecap="round"/>
<path d="M111.105 206.671C111.328 204.882 114.089 208.419 114.089 209.655" stroke="black" stroke-width="3" stroke-linecap="round"/>
<path d="M91.7101 224.574H96.6831" stroke="black" stroke-width="3" stroke-linecap="round"/>
<path d="M187.643 121.108C187.997 124.288 189.678 127.511 189.832 130.737C189.902 132.207 190.78 134.371 189.929 135.648C188.778 137.375 188.192 139.804 186.987 141.679C183.365 147.312 175.602 144.742 170.136 144.742" stroke="black" stroke-width="3" stroke-linecap="round"/>
<path d="M181.078 145.618C182.952 145.618 184.445 145.38 185.99 146.493C187.721 147.739 188.127 150.662 188.616 152.621C189.474 156.052 189.832 160.187 189.832 163.709C189.832 165.015 190.716 170.561 189.832 171.003" stroke="black" stroke-width="3" stroke-linecap="round"/>
<path d="M190.707 191.31C189.811 191.198 190.27 187.764 190.27 187.128C190.27 185.108 191.662 183.64 193.187 182.362C194.686 181.108 196.715 180.448 198.124 179.274C198.908 178.62 200.29 179.586 200.774 178.618" stroke="black" stroke-width="3" stroke-linecap="round"/>
<path d="M189.394 168.551C189.394 170.956 190.112 176.65 192.798 177.645C195.262 178.557 198.128 178.618 200.774 178.618" stroke="black" stroke-width="3" stroke-linecap="round"/>
<path d="M3.3797 188.948C3.3797 193.931 8.06464 201.005 2.40708 204.705C-1.43339 207.216 -5.51982 206.893 -9.75073 206.893" stroke="black" stroke-width="3" stroke-linecap="round"/>
<path d="M4.25513 193.763C4.53358 196.269 7.02057 202.587 9.75046 203.367C12.4329 204.134 15.586 202.954 18.2609 202.954" stroke="black" stroke-width="3" stroke-linecap="round"/>
<path d="M-5.81152 208.644C-1.43423 208.157 0.584426 205.725 3.57431 210.346C6.3139 214.58 7.31891 220.716 7.31891 225.713" stroke="black" stroke-width="3" stroke-linecap="round"/>
<path d="M13.4464 203.829C11.6642 207.196 8.55129 209.118 7.65927 213.021C6.80183 216.772 8.19422 219.873 8.19422 223.525" stroke="black" stroke-width="3" stroke-linecap="round"/>
<path d="M22.1162 48.5817H23.1514" stroke="black" stroke-width="3" stroke-linecap="round"/>
<path d="M5.55383 47.5466C5.64558 48.2805 6.2676 48.9741 6.58898 49.6169" stroke="black" stroke-width="3" stroke-linecap="round"/>
<path d="M30.3975 49.6169C31.2444 50.5696 31.9411 51.6691 32.4678 52.7223" stroke="black" stroke-width="3" stroke-linecap="round"/>
<path d="M78.0717 91.268C78.0717 85.5827 79.1018 80.6185 85.1063 78.617C87.6699 77.7625 94.987 78.0858 92.3678 74.419C90.7401 72.1401 87.8508 69.2731 87.2621 66.4766C86.4061 62.4107 87.018 59.4017 88.1698 55.5276C89.6605 50.5131 93.8596 47.3879 98.977 46.8761C103.503 46.4235 109.504 45.0817 113.273 48.3795C118.151 52.6473 120.693 62.2408 119.031 68.5189C118.746 69.5977 118.69 71.0735 118.01 71.9795C117.673 72.4286 116.706 73.0009 117.102 73.3978C117.393 73.6887 119.28 74.1734 119.712 74.3055C122.033 75.0148 123.409 77.0709 125.016 78.7589C128.184 82.085 129.129 87.3733 129.129 91.807C129.129 93.5469 129.755 99.1247 128.108 99.9478" stroke="black" stroke-width="3" stroke-linecap="round"/>
<path d="M103.601 57.5699C102.96 58.2902 102.565 59.2965 102.069 60.1228" stroke="black" stroke-width="3" stroke-linecap="round"/>
<path d="M101.558 60.6334C101.558 63.8047 100.886 70.7754 105.643 65.7391C106.528 64.8024 106.473 61.6249 106.125 60.4064C105.834 59.389 104.098 59.0744 103.601 58.0805" stroke="black" stroke-width="3" stroke-linecap="round"/>
<path d="M97.4736 57.0593V57.5699" stroke="black" stroke-width="3" stroke-linecap="round"/>
<path d="M105.643 55.5276C106.113 55.5864 105.981 55.6933 106.153 56.0381" stroke="black" stroke-width="3" stroke-linecap="round"/>
<path d="M140.873 73.3978C136.384 68.7731 136.988 63.5097 137.412 57.2862C137.721 52.7624 139.714 45.4998 143.142 42.2526C145.492 40.0262 150.979 41.2469 153.467 42.2526C157.807 44.007 163.411 48.9448 165.267 53.3718C166.492 56.2931 167.914 59.5364 167.309 62.7891C167.041 64.2331 165.381 68.1949 167.026 69.3132C172.312 72.9075 177.903 75.943 180.357 82.3613C181.953 86.5347 181.877 91.2322 183.251 95.3526" stroke="black" stroke-width="3" stroke-linecap="round"/>
<path d="M140.362 77.993C136.249 82.1064 132.015 88.4293 131.172 94.3315" stroke="black" stroke-width="3" stroke-linecap="round"/>
<path d="M149.553 63.1862C148.126 63.3646 148.252 66.4349 149.297 67.0156C150.962 67.9404 152.343 64.9033 152.871 63.9521C154.595 60.8497 150.176 56.7206 148.531 61.6545" stroke="black" stroke-width="3" stroke-linecap="round"/>
<path d="M147 55.017C147.058 55.4874 147.165 55.3551 147.51 55.5276" stroke="black" stroke-width="3" stroke-linecap="round"/>
<path d="M152.787 53.8832C152.01 53.7861 152.228 53.6094 151.943 53.0397" stroke="black" stroke-width="3" stroke-linecap="round"/>
</svg>
