<svg width="32" height="32" viewBox="0 0 32 32" fill="none" xmlns="http://www.w3.org/2000/svg">
<path d="M9.84009 15.6082C9.88731 15.372 10.2428 15.2827 10.4204 15.1787C10.8926 14.9023 11.3141 14.5205 11.7416 14.182C12.3287 13.7173 12.9385 13.2843 13.5317 12.828C13.9871 12.4777 14.4193 12.0992 14.9021 11.7854C15.3796 11.475 15.9023 11.2577 16.4037 10.992C16.7209 10.8239 17.0543 10.5872 17.3938 10.474" stroke="black" stroke-width="2" stroke-linecap="round"/>
<path d="M9.13184 16.1393C9.92517 16.6976 10.4352 17.6178 10.9055 18.4408C10.9656 18.5459 11.1884 19.1816 11.2924 19.2047C11.4275 19.2347 11.5276 19.2919 11.6071 19.4113C11.6122 19.4189 11.6893 19.3356 11.6989 19.3227C11.7759 19.2201 11.8723 19.1642 11.971 19.0834C12.7088 18.4798 13.4634 17.9256 14.2955 17.4671C15.4167 16.8493 16.6357 16.4135 17.738 15.759C18.3323 15.4061 18.7565 14.7949 19.2953 14.3689C19.4325 14.2604 19.659 14.1202 19.7412 13.9558C19.8261 13.786 19.6175 13.274 19.5904 13.0837C19.5015 12.4619 19.4521 11.7518 19.1904 11.1821C19.0942 10.9729 19.0343 10.409 18.8101 10.2969" stroke="black" stroke-width="2" stroke-linecap="round"/>
<path d="M13.0269 19.267C13.2516 19.267 13.4454 19.5667 13.5711 19.7194C13.9847 20.222 14.3918 20.7417 14.7809 21.2636C15.5524 22.2987 16.3949 23.2686 17.1709 24.2963C17.8841 25.2408 18.4657 26.3277 19.4003 27.0699C19.6092 27.2358 19.6696 27.5047 19.8757 27.6764C20.0767 27.844 20.5205 27.5882 20.6724 27.483C21.1164 27.1756 21.5937 26.8748 22.0002 26.5191C22.3714 26.1943 22.6904 25.8362 23.1149 25.5815C23.24 25.5064 23.7083 25.2354 23.7083 25.0503C23.7083 24.6909 23.4442 24.2807 23.3247 23.9488C22.8688 22.6823 22.4135 21.4174 22.0789 20.1161C21.8036 19.0455 21.4652 17.9651 21.0002 16.9688C20.8137 16.569 20.6095 16.1096 20.4626 15.6934C20.3611 15.4058 20.1085 15.0167 20.1085 14.723" stroke="black" stroke-width="2" stroke-linecap="round"/>
<path d="M22.5869 26.8798C23.1006 27.3934 23.387 28.3027 24.1082 28.5912C24.9894 28.9436 25.7998 28.7934 26.4359 28.0928C26.5329 27.986 27.0006 27.2871 27.2228 27.5092C27.4729 27.7593 27.7279 28.0932 27.9113 28.3944C28.0578 28.6352 28.2027 28.8736 28.3407 29.119C28.3948 29.2151 28.4671 29.4362 28.5473 29.4764" stroke="black" stroke-width="2" stroke-linecap="round"/>
<path d="M9.84008 14.841C9.64444 15.4279 8.33452 15.2167 7.97132 15.182C7.26502 15.1143 6.73782 14.8045 6.20747 14.3656C4.80124 13.2018 4.67059 11.0932 4.7059 9.39862C4.72049 8.69842 4.74591 7.99037 4.76491 7.28725C4.77641 6.86186 4.8554 6.29561 5.08293 5.92993C5.6092 5.08414 6.1874 4.11332 6.8894 3.39235C7.46778 2.79834 8.1695 2.58752 8.94176 2.3301C9.80764 2.04148 10.6436 2.09405 11.5548 2.09405C12.3153 2.09405 12.9679 2.18997 13.6629 2.49403C14.468 2.84627 15.2454 3.51666 15.7742 4.22182C16.0986 4.6543 16.4652 5.10319 16.6824 5.60536C16.9034 6.11656 17.1821 6.69555 17.2889 7.24135C17.4063 7.84147 17.5119 8.44699 17.5119 9.06093C17.5119 9.38804 17.3938 9.68377 17.3938 10.0019" stroke="black" stroke-width="2" stroke-linecap="round"/>
<path d="M7.18433 5.28078C7.20284 5.44739 7.41194 5.65001 7.49579 5.78239C8.00533 6.58693 8.4603 7.42437 8.97113 8.22818C9.37577 8.86489 9.75199 9.50467 10.0891 10.1789C10.2525 10.5056 10.3753 10.9579 10.6071 11.2412C10.8421 11.5284 11.1973 12.5565 11.1973 12.1854" stroke="black" stroke-width="2" stroke-linecap="round"/>
<path d="M10.1941 2.74319C10.2312 3.11472 10.6159 3.56761 10.7908 3.87757C11.2037 4.60922 11.5878 5.35671 11.9907 6.09386C12.4778 6.98487 12.74 7.98177 13.2366 8.8675C13.5176 9.36884 13.6616 10.0099 13.971 10.474" stroke="black" stroke-width="2" stroke-linecap="round"/>
<path d="M5.1189 8.88061C5.41817 8.44717 5.88542 8.14043 6.30573 7.83476C7.36289 7.06591 8.43343 6.28128 9.58098 5.65125C10.1972 5.31296 10.833 4.98567 11.3612 4.5136C11.8352 4.09007 12.342 3.66397 12.7907 3.2153" stroke="black" stroke-width="2" stroke-linecap="round"/>
<path d="M6.29932 11.7133C6.88905 11.629 7.52831 11.1554 8.07628 10.9362C9.36674 10.4201 10.7081 9.95213 11.8728 9.17567C12.6659 8.64694 13.3722 8.00752 14.1744 7.49706C14.3911 7.35911 14.6513 7.2884 14.8694 7.14298C15.1146 6.97951 15.3331 6.76275 15.5579 6.57252C15.8089 6.36012 16.0388 6.01733 16.3316 5.87091" stroke="black" stroke-width="2" stroke-linecap="round"/>
</svg>
