<svg width="121" height="126" viewBox="0 0 121 126" fill="none" xmlns="http://www.w3.org/2000/svg">
<path d="M37.2524 70.172C36.0086 70.0423 33.3404 67.4613 32.3118 66.6983C29.3715 64.5174 26.3588 62.3391 24.169 59.5982C19.7172 54.026 19.1369 48.8296 19.1369 42.2678C19.1369 33.8111 17.3444 27.4969 26.7308 22.0745C31.3643 19.3978 35.7143 19.3281 40.912 18.2954C47.0355 17.0788 52.9038 20.0132 59.0732 20.0132C68.3564 20.0132 75.0271 27.808 81.9005 31.9994C86.1532 34.5926 85.8347 38.9355 85.8347 42.9931C85.8347 48.4746 86.4664 54.2294 85.057 59.5219C84.4779 61.6965 84.0345 63.7474 84.1878 66.0494C84.2806 67.4428 88.4164 69.4402 89.3114 70.8591C90.3182 72.4554 91.3467 73.2477 92.0104 75.0199C92.8173 77.1746 95.2413 79.4532 97.748 82.5907C101.167 87.6626 107.81 93.3317 110.04 98.9131C111.895 103.557 114.698 107.805 116.444 112.541C117.577 115.612 116.627 119.805 116.627 123" stroke="black" stroke-width="3" stroke-linecap="round"/>
<path d="M44.2236 45.1782C44.7695 45.1099 45.3374 45.1782 46.0117 45.1782" stroke="black" stroke-width="3" stroke-linecap="round"/>
<path d="M54.9521 44.7311H56.2932" stroke="black" stroke-width="3" stroke-linecap="round"/>
<path d="M49.141 44.5076C49.141 45.8245 48.9175 47.0931 48.9175 48.4066C48.9175 49.0915 49.141 49.6535 49.141 50.3188C49.141 51.7093 49.5816 54.1184 51.1526 54.1184" stroke="black" stroke-width="3" stroke-linecap="round"/>
<path d="M35.0601 50.3188C35.9518 50.6042 36.4259 51.0837 37.2206 51.5606C38.3483 52.2372 39.6571 52.6441 40.6974 53.4479C41.7158 54.2349 42.6885 55.1691 43.5533 56.13C44.7099 57.4151 44.9975 59.5231 45.5152 61.0969C45.8919 62.242 46.2354 63.642 46.2354 64.8468" stroke="black" stroke-width="3" stroke-linecap="round"/>
<path d="M72.1624 43.8371C68.4909 45.0609 66.523 50.2367 65.569 53.6714C64.6543 56.9641 65.2337 60.4031 65.2337 63.7292" stroke="black" stroke-width="3" stroke-linecap="round"/>
<path d="M65.9038 51.6598C66.5257 51.6598 68.3186 51.3487 68.5859 51.8834" stroke="black" stroke-width="3" stroke-linecap="round"/>
<path d="M65.2334 56.8005H68.3625" stroke="black" stroke-width="3" stroke-linecap="round"/>
<path d="M41.0946 54.7889C40.5103 55.3732 40.0559 55.8777 39.53 56.5273C39.091 57.0696 38.5447 57.1609 38.189 57.6945" stroke="black" stroke-width="3" stroke-linecap="round"/>
<path d="M42.8827 58.1415C42.7088 59.0975 41.6173 60.1026 40.8711 60.6001" stroke="black" stroke-width="3" stroke-linecap="round"/>
<path d="M88.2549 105.302C88.1428 106.31 87.587 107.413 87.3608 108.431" stroke="black" stroke-width="3" stroke-linecap="round"/>
<path d="M91.1603 108.654C91.1139 109.071 90.6554 109.581 90.4897 109.995" stroke="black" stroke-width="3" stroke-linecap="round"/>
<path d="M42.2124 93.6792C43.0752 93.6792 43.8632 93.6334 44.671 93.9027" stroke="black" stroke-width="3" stroke-linecap="round"/>
<path d="M40.8711 98.1493H42.6591" stroke="black" stroke-width="3" stroke-linecap="round"/>
<path d="M56.293 30.8737C56.5726 31.468 56.4573 32.0963 56.74 32.6618" stroke="black" stroke-width="3" stroke-linecap="round"/>
<path d="M60.0928 29.9797V31.9912" stroke="black" stroke-width="3" stroke-linecap="round"/>
<path d="M42.2122 46.9662C42.6549 46.9662 42.7288 46.7027 42.4854 47.1897C41.395 49.3703 40.7093 51.6013 39.9771 53.9197C38.724 57.8879 39.0831 62.1256 39.0831 66.2374C39.0831 73.9027 39.3066 81.5742 39.3066 89.2587C39.3066 91.5343 38.8957 93.8143 38.8596 96.088C38.7845 100.816 38.7306 105.541 38.6361 110.268C38.5502 114.56 36.6245 118.667 36.6245 122.959" stroke="#0EFFF1" stroke-linecap="round"/>
<path d="M57.6343 45.8487C59.3885 46.1995 59.3765 50.8939 59.5341 52.0696C60.5791 59.8673 61.2144 67.6569 61.5581 75.513C61.9372 84.1798 61.8463 93.0123 62.7874 101.639C63.146 104.926 63.3159 108.419 63.9049 111.659C64.3968 114.364 64.3395 117.259 64.3395 120.053" stroke="#0EFFF1" stroke-linecap="round"/>
<path d="M51.0396 61.9774C51.142 61.1576 54.7286 61.3199 55.0574 61.9774" stroke="black" stroke-width="3" stroke-linecap="round"/>
<path d="M68.4731 18.1227C68.7077 17.8621 68.8762 17.5583 69.1279 17.3066C69.597 16.8375 70.1378 16.4802 70.6763 16.0995C72.6809 14.6822 75.1677 14.3577 77.5559 14.0949C78.5702 13.9832 79.5022 14.1945 80.4853 14.4486C81.1894 14.6306 82.3098 14.7302 82.7102 15.4478C82.9364 15.8533 83.2934 16.4608 83.3091 16.9404C83.3248 17.4198 83.105 17.9413 82.8591 18.3399C82.2797 19.2794 81.5619 20.0621 80.4139 19.6587C80.1119 19.5526 79.8768 19.3421 79.756 19.0474C79.5783 18.6136 79.8165 18.3113 79.9826 17.8962C80.1918 17.3731 80.342 16.6444 80.687 16.1988C81.0298 15.7559 81.5539 15.3322 82.0089 15.0134C82.9096 14.3822 83.7908 14.1064 84.8948 13.9987C85.8688 13.9036 86.8227 13.923 87.7807 13.7101C88.2076 13.6152 88.6819 13.6398 89.0964 13.5301C89.3579 13.4609 89.7142 13.4748 89.9218 13.3191" stroke="black" stroke-width="3" stroke-linecap="round"/>
<path d="M95.7866 12.4812C95.8658 12.4812 95.922 12.4567 95.9976 12.4378C96.2629 12.3715 96.7359 12.6531 96.9813 12.7264C97.9468 13.0147 98.6825 12.797 99.5352 12.3261C100.241 11.9365 101.21 11.5056 101.707 10.8428C102.08 10.3453 102.098 9.82781 102.098 9.24158" stroke="black" stroke-width="3" stroke-linecap="round"/>
<path d="M35.4221 66.7055C34.7255 67.4892 34.9834 68.2626 34.5387 69.152C33.716 70.7973 32.2965 72.1379 31.4125 73.7733C29.9676 76.4463 28.1938 78.6724 27.1991 81.6566C25.0753 88.0277 25.5289 94.6537 24.1069 101.195C23.1876 105.424 19.8346 109.528 19.5197 113.937C19.2709 117.42 18.2964 120.718 18.2964 124.199" stroke="black" stroke-width="3" stroke-linecap="round"/>
<path d="M4 114C4.34339 115.982 9.50879 117.663 11.6574 118.483C16.8481 120.466 23.5908 119.411 29.3766 119.717C36.8507 120.112 44.4454 119.978 51.9417 119.978C60.4019 119.978 68.8283 119.337 77.2628 119.337C88.558 119.337 99.889 119.504 111.037 118.151C112.983 117.915 114.622 117.834 116.345 117.202C117.163 116.903 117.204 115.07 116.53 114.854" stroke="#0EFFF1" stroke-width="8" stroke-linecap="round"/>
</svg>
