<svg width="97" height="24" viewBox="0 0 97 24" fill="none" xmlns="http://www.w3.org/2000/svg">
<path d="M11 7.83734C11.1152 7.83734 11.2297 7.79353 11.3428 7.77395C12.1677 7.63117 13.0438 7.71056 13.8761 7.71056C15.9046 7.71056 17.9307 7.62604 19.9592 7.62604" stroke="#B53A3A" stroke-width="2" stroke-linecap="round"/>
<path d="M15.6065 8.13316C15.6065 8.25617 15.5837 8.3643 15.5572 8.48533C15.4264 9.08185 15.3686 9.68588 15.313 10.2931C15.2151 11.3618 15.3051 12.4303 15.3106 13.5002C15.3136 14.069 15.3529 14.6352 15.3529 15.2001C15.3529 15.5914 15.3529 15.9827 15.3529 16.374" stroke="#B53A3A" stroke-width="2" stroke-linecap="round"/>
<path d="M14.97 10.6958C15.2877 10.6958 15.6944 10.8887 15.9936 10.9822C16.5766 11.1644 17.1372 11.3746 17.7357 11.5081C18.146 11.5997 18.5617 11.6582 18.9213 11.858C19.0613 11.9357 19.3089 12.0245 19.4684 12.0458C19.6295 12.0673 19.8055 12.1749 19.9567 12.1749" stroke="#B53A3A" stroke-width="2" stroke-linecap="round"/>
<path d="M33.8992 8.488V9.748H32.8912C33.0752 9.892 33.2192 10.072 33.3232 10.288C33.4352 10.504 33.4912 10.756 33.4912 11.044V12.796C33.4912 13.044 33.4472 13.28 33.3592 13.504C33.2792 13.728 33.1632 13.928 33.0112 14.104C32.8672 14.272 32.6912 14.408 32.4832 14.512C32.2832 14.608 32.0592 14.656 31.8112 14.656H30.3352C30.1192 14.656 29.9072 14.612 29.6992 14.524C29.4992 14.428 29.3192 14.3 29.1592 14.14C28.9992 13.98 28.8712 13.796 28.7752 13.588C28.6792 13.372 28.6312 13.14 28.6312 12.892V11.044C28.6312 10.756 28.6992 10.504 28.8352 10.288C28.9712 10.072 29.1432 9.892 29.3512 9.748H28.3192V8.488H30.2512V7.648H31.9432V8.488H33.8992ZM36.1792 10.624H37.5712V12.172H36.1792V17.356H34.6432V7.384H36.1792V10.624ZM32.0872 12.64V11.332C32.0872 11.116 32.0232 10.932 31.8952 10.78C31.7672 10.628 31.5992 10.552 31.3912 10.552H30.8392C30.6312 10.552 30.4432 10.628 30.2752 10.78C30.1152 10.932 30.0352 11.116 30.0352 11.332V12.616C30.0352 12.824 30.1152 12.988 30.2752 13.108C30.4432 13.228 30.6312 13.288 30.8392 13.288H31.3912C31.5992 13.288 31.7672 13.232 31.8952 13.12C32.0232 13.008 32.0872 12.848 32.0872 12.64ZM46.5119 7.36V17.236H44.9279V12.712H43.1879V11.068H44.9279V7.36H46.5119ZM43.0439 8.32V9.748C43.0439 10.284 42.9559 10.804 42.7799 11.308C42.6119 11.812 42.3919 12.292 42.1199 12.748C41.8479 13.196 41.5439 13.616 41.2079 14.008C40.8719 14.392 40.5439 14.74 40.2239 15.052C39.9039 15.356 39.6079 15.62 39.3359 15.844C39.0719 16.06 38.8679 16.22 38.7239 16.324V14.308C39.1399 13.98 39.5079 13.628 39.8279 13.252C40.1479 12.868 40.4159 12.48 40.6319 12.088C40.8559 11.688 41.0239 11.296 41.1359 10.912C41.2559 10.52 41.3239 10.156 41.3399 9.82H38.2919V8.32H43.0439ZM52.6573 9.532V8.188H47.2333V9.532H49.0933C49.1013 9.652 49.1053 9.824 49.1053 10.048C49.1133 10.264 49.1013 10.508 49.0693 10.78C49.0453 11.052 48.9973 11.336 48.9253 11.632C48.8613 11.92 48.7573 12.2 48.6133 12.472C48.4773 12.736 48.2973 12.976 48.0733 13.192C47.8493 13.408 47.5733 13.572 47.2453 13.684V15.076C47.6453 15.004 48.0213 14.876 48.3733 14.692C48.6773 14.532 48.9773 14.312 49.2733 14.032C49.5693 13.744 49.7933 13.36 49.9453 12.88C50.0173 13.104 50.1093 13.308 50.2213 13.492C50.3413 13.668 50.4693 13.828 50.6053 13.972C50.7493 14.116 50.8973 14.244 51.0493 14.356C51.2013 14.468 51.3533 14.564 51.5053 14.644C51.8573 14.836 52.2333 14.98 52.6333 15.076V13.684C52.3053 13.572 52.0293 13.408 51.8053 13.192C51.5813 12.976 51.3973 12.736 51.2533 12.472C51.1093 12.2 50.9973 11.92 50.9173 11.632C50.8453 11.336 50.7933 11.052 50.7613 10.78C50.7373 10.508 50.7253 10.264 50.7253 10.048C50.7253 9.824 50.7293 9.652 50.7373 9.532H52.6573ZM55.3213 17.344H53.7133V7.252H55.3213V17.344ZM57.0178 11.224V7.264H64.1818V8.236H58.6018V8.704H64.1818V9.82H58.6018V10.264H64.1818V11.224H57.0178ZM56.9698 13.84H64.2418V14.98C64.2338 15.276 64.2018 15.556 64.1458 15.82C64.0978 16.084 64.0418 16.316 63.9778 16.516C63.9058 16.748 63.8258 16.964 63.7378 17.164H62.2618C62.3978 16.9 62.5018 16.648 62.5738 16.408C62.6458 16.176 62.6978 15.972 62.7298 15.796C62.7618 15.588 62.7778 15.396 62.7778 15.22H56.9698V13.84ZM65.2618 13.06H56.0458V11.824H65.2618V13.06Z" fill="#B53A3A"/>
<path d="M77.903 7.84V16.6H75.743V9.472H74.627V7.84H77.903ZM81.5719 16.6C81.2759 16.6 80.9919 16.56 80.7199 16.48C80.4479 16.408 80.2079 16.288 79.9999 16.12C79.7919 15.952 79.6239 15.732 79.4959 15.46C79.3759 15.188 79.3159 14.852 79.3159 14.452V10C79.3159 9.6 79.4039 9.264 79.5799 8.992C79.7559 8.712 79.9759 8.488 80.2399 8.32C80.5119 8.152 80.8039 8.032 81.1159 7.96C81.4279 7.88 81.7159 7.84 81.9799 7.84H82.5319C82.8599 7.84 83.1799 7.88 83.4919 7.96C83.8119 8.032 84.0959 8.156 84.3439 8.332C84.5999 8.5 84.8039 8.724 84.9559 9.004C85.1159 9.276 85.1959 9.612 85.1959 10.012V14.344C85.1959 14.672 85.1399 14.976 85.0279 15.256C84.9239 15.528 84.7679 15.764 84.5599 15.964C84.3599 16.164 84.1119 16.32 83.8159 16.432C83.5279 16.544 83.1959 16.6 82.8199 16.6H81.5719ZM81.8719 14.992H82.3759C82.5039 14.992 82.6119 14.964 82.6999 14.908C82.7879 14.844 82.8599 14.764 82.9159 14.668C82.9719 14.564 83.0079 14.452 83.0239 14.332C83.0479 14.204 83.0599 14.072 83.0599 13.936V10C83.0599 9.864 83.0479 9.732 83.0239 9.604C82.9999 9.476 82.9599 9.36 82.9039 9.256C82.8559 9.152 82.7879 9.072 82.6999 9.016C82.6199 8.952 82.5159 8.92 82.3879 8.92H81.8599C81.7239 8.92 81.5999 8.952 81.4879 9.016C81.3759 9.072 81.2759 9.152 81.1879 9.256C81.0999 9.36 81.0319 9.476 80.9839 9.604C80.9359 9.732 80.9119 9.864 80.9119 10V13.936C80.9119 14.072 80.9119 14.204 80.9119 14.332C80.9119 14.452 80.9359 14.564 80.9839 14.668C81.0399 14.764 81.1359 14.844 81.2719 14.908C81.4079 14.964 81.6079 14.992 81.8719 14.992Z" fill="#B53A3A"/>
<rect x="0.5" y="0.5" width="95.9592" height="23" rx="4.5" stroke="#666666"/>
</svg>
