<svg width="122" height="126" viewBox="0 0 122 126" fill="none" xmlns="http://www.w3.org/2000/svg">
<path d="M41.2458 85.2039C38.72 85.2039 37.1785 82.2476 36.16 80.118C31.1484 69.6393 30.4233 57.5876 30.3476 46.1518C30.2632 33.4072 42.7349 23.9921 54.3237 21.994C58.4456 21.2834 63.2457 20.8698 67.2806 22.2665C70.5253 23.3897 73.0509 26.614 75.3937 28.9568C82.5343 36.0973 90.4061 43.6547 92.4676 53.8411C94.0951 61.8827 94.4052 70.491 89.0771 77.2724C87.272 79.5697 85.7586 81.6118 83.4463 83.448C82.3329 84.3322 81.0999 85.2039 82.9317 85.2039C84.7196 85.2039 84.5489 84.6881 86.746 85.7488" stroke="black" stroke-width="3" stroke-linecap="round"/>
<path d="M58.1382 53.054C56.644 54.7351 57.0484 59.6841 57.0484 61.8332C57.0484 63.901 56.9364 66.4578 59.2281 67.2217" stroke="black" stroke-width="3" stroke-linecap="round"/>
<path d="M37.9761 62.8624C40.8262 65.3959 44.3119 67.1574 45.6048 71.0361" stroke="black" stroke-width="3" stroke-linecap="round"/>
<path d="M74.4853 59.593C74.4853 62.4468 72.8506 65.3239 72.8506 68.3116" stroke="black" stroke-width="3" stroke-linecap="round"/>
<path d="M44.8716 46.7711C45.2696 46.8209 45.7774 47.861 45.9637 48.1045C47.2044 49.7269 48.5979 51.5862 50.4085 52.6128C51.2001 53.0617 52.7049 53.8573 53.6722 53.8573C54.2326 53.8573 54.5499 53.8713 54.7135 53.2986C54.8169 52.937 55.8781 52.8744 56.0724 52.4858" stroke="black" stroke-width="3" stroke-linecap="round"/>
<path d="M44.186 45.3996C44.6496 45.8117 45.1995 45.8568 45.7988 45.8568C46.5143 45.8568 48.5403 45.4727 47.945 45.8695C47.3332 46.2774 49.7766 48.835 50.0531 49.2221C50.5595 49.9311 51.8564 51.1143 51.8564 51.1143C51.8564 51.1143 50.1579 49.51 49.2912 48.7268C48.1868 47.7289 47.621 46.9241 46.7513 45.806C45.5501 44.2617 49.7999 48.2705 51.1834 49.6539C52.2602 50.7308 53.105 52.2014 54.5995 52.4731C55.7368 52.6799 56.905 52.7551 58.0537 52.8922C58.6833 52.9674 58.325 52.8253 58.3585 52.2572C58.3771 51.94 58.6096 51.748 58.5871 51.3429C58.5666 50.9746 58.1389 50.5435 58.4093 51.1143C58.7198 51.7698 59.9869 53.4002 60.7713 53.4002C61.4711 53.4002 61.7754 53.29 62.4222 53.0446C64.2898 52.3362 66.2337 51.9076 68.048 51.0508C70.2124 50.0287 72.6033 47.2046 73.9024 45.2218C74.4778 44.3435 74.1705 44.3572 73.4452 43.9773C73.2552 43.8778 71.9819 42.8499 71.8959 42.936C71.6264 43.2055 71.4756 44.8337 71.3753 45.2853C71.3046 45.6035 70.7621 46.1218 70.5752 46.4156C70.083 47.1891 69.2832 47.5999 68.5306 48.0411C66.186 49.4155 64.1722 51.5715 61.3301 51.5715" stroke="black" stroke-width="3" stroke-linecap="round"/>
<path d="M62.2444 54.3145C61.3373 55.3351 62.2529 57.6183 62.4603 58.7593C62.7515 60.3609 65.0954 60.5465 66.359 60.4864C66.8902 60.4611 68.1925 59.1067 68.4925 58.6704C69.028 57.8915 68.6449 56.2671 68.6449 55.3432C68.6449 54.1218 68.7187 52.862 68.1877 51.8" stroke="black" stroke-width="3" stroke-linecap="round"/>
<path d="M63.6157 54.7717C63.6157 55.7985 63.9073 56.829 65.1015 56.829C65.4807 56.829 65.9055 56.9266 66.181 56.6512C66.6652 56.167 65.0035 57.263 64.7968 57.375C64.5148 57.5277 63.4845 57.6682 63.6411 58.0989C63.9927 59.0656 65.043 59.5948 65.9778 59.572C66.4923 59.5595 66.5874 59.2163 66.5874 58.7719C66.5874 58.2729 66.0477 58.4291 65.673 58.4291" stroke="black" stroke-width="3" stroke-linecap="round"/>
<path d="M48.9863 53.8574C48.9863 56.4756 50.5752 61.3593 54.0026 60.9309C54.9583 60.8114 55.7444 58.6336 55.9455 57.8576C56.2909 56.5257 56.0725 55.6292 56.0725 54.3145" stroke="black" stroke-width="3" stroke-linecap="round"/>
<path d="M50.1294 57.0576C50.2408 57.9487 51.9797 58.6057 52.6947 58.8355C52.8295 58.8788 53.7209 58.8678 53.2788 58.8863C52.8663 58.9034 52.4766 59.2493 52.0597 59.064C51.2129 58.6877 50.702 57.6336 52.1359 58.2005C53.0103 58.5462 53.5478 58.6577 54.4726 58.6577" stroke="black" stroke-width="3" stroke-linecap="round"/>
<path d="M54.2437 73.0587C54.8883 73.381 55.6505 73.5802 56.2501 73.9731C56.829 74.3523 57.1773 75.0445 57.8503 75.2938C59.1319 75.7685 60.0061 74.5801 60.9616 73.9985C62.6483 72.9718 64.0988 71.849 65.3428 70.2776C65.6735 69.8599 66.1001 68.7155 66.7017 68.7155C67.1679 68.7155 67.4237 68.3364 67.7303 68.0298" stroke="black" stroke-width="3" stroke-linecap="round"/>
<path d="M82.3599 62.0865C83.2299 62.1832 83.2322 63.2154 83.96 63.458" stroke="black" stroke-width="3" stroke-linecap="round"/>
<path d="M81.4458 64.601C81.9652 64.6659 83.1068 66.3839 83.2745 66.8868" stroke="black" stroke-width="3" stroke-linecap="round"/>
<path d="M41.2144 98.4319C41.3566 98.9694 41.5376 99.4963 41.6715 100.032" stroke="black" stroke-width="3" stroke-linecap="round"/>
<path d="M43.7285 97.2889C44.0466 98.0047 44.1893 98.8249 44.4143 99.5748" stroke="black" stroke-width="3" stroke-linecap="round"/>
<path d="M53.0522 28C53.0051 27.3265 52.4203 26.3764 52.208 25.8063C52.0286 25.3244 52.0015 25.0415 52.0015 24.51C52.0015 23.9756 51.976 23.3049 52.1362 22.8148C52.3403 22.1905 52.8235 21.568 53.1331 21.0769C54.0824 19.571 55.267 19.093 56.5637 18.7692C57.651 18.4978 59.0797 18.3608 60.0886 19.161C60.5213 19.5041 60.9024 20.1081 61.3325 20.5C61.9156 21.0313 62.5275 21.4314 63.1241 21.9174C64.9025 23.3659 66.7954 24.3704 68.773 24.859C70.3726 25.2541 71.8093 25.2303 73.3756 24.5385C74.3025 24.1291 75.1065 23.7041 75.76 22.5442C76.7003 20.8752 77.8069 19.2327 78.562 17.3447C79.059 16.1022 78.9976 14.4188 78.9976 13" stroke="black" stroke-width="3" stroke-linecap="round"/>
<path d="M41.8999 37.1704C41.8999 37.5129 41.8288 37.7063 42.1285 37.8562" stroke="black" stroke-width="3" stroke-linecap="round"/>
<path d="M44.4146 36.0275V36.7133" stroke="black" stroke-width="3" stroke-linecap="round"/>
<path d="M17.3463 67C16.9198 67.722 16.0868 68.1638 15.4241 68.6248C13.8464 69.7222 11.9681 70.6883 10.69 72.181C10.2494 72.6956 8.18964 75.5553 9.34994 76.1009C10.2006 76.5009 10.9695 76.7076 11.9092 76.9189C13.667 77.3142 15.9321 76.1582 17.588 75.7259C21.8392 74.6163 25.9032 72.9119 30 71.4993" stroke="black" stroke-width="3" stroke-linecap="round"/>
<path d="M88 48C88.5825 48 89.2095 47.6531 89.7687 47.5093C94.8287 46.2083 99.7445 44.3471 104.792 42.9813C107.732 42.1856 111.049 41.9936 113.789 40.5946C115.387 39.7783 116.888 38.8417 118.549 38.1633C120.413 37.4016 120.017 36 119.837 34.349C119.79 33.9173 118.673 32.9309 118.309 32.7876C117.583 32.5026 117.078 32.0666 116.278 31.8396C115.319 31.5676 110.84 30.4476 110.404 31.3378" stroke="black" stroke-width="3" stroke-linecap="round"/>
<path d="M17.4758 53.8812C17.4596 53.7295 17.0343 53.4912 16.9602 53.438C15.8816 52.664 14.533 52.1728 13.2592 52.2929C12.6645 52.349 12.1764 52.7016 11.7486 53.1689C11.5041 53.4358 11.199 53.7686 11.0619 54.1371C10.8966 54.5816 11.0973 55.2483 11.2555 55.6595C11.3881 56.0041 11.495 56.3411 11.7373 56.604C12.1301 57.0303 12.9017 57.0283 13.3875 56.9761C13.8851 56.9225 14.2982 56.3168 14.6122 55.9233C15.1427 55.2584 15.6535 54.5812 16.2511 53.9947C17.0889 53.1725 18.1517 52.6826 19.2047 52.3826C20.5741 51.9926 21.9989 51.9286 23.4011 52.066C23.802 52.1053 24.0042 52.3116 23.9999 52.7942C23.9939 53.4847 23.5749 54.1 23.293 54.678C22.9826 55.3147 22.6041 55.9502 22.0593 56.3349C21.7369 56.5626 21.2639 56.796 20.8887 56.6146C20.4742 56.4142 20.1059 55.9589 19.8171 55.5803C19.544 55.2223 19.2677 54.8468 19.0472 54.4406C18.9651 54.2894 18.8562 54.1187 18.6915 54.1187" stroke="black" stroke-width="3" stroke-linecap="round"/>
<path d="M99.4758 31.8812C99.4596 31.7295 99.0343 31.4912 98.9602 31.438C97.8816 30.664 96.533 30.1728 95.2592 30.2929C94.6645 30.349 94.1764 30.7016 93.7486 31.1689C93.5041 31.4358 93.199 31.7686 93.0619 32.1371C92.8966 32.5816 93.0973 33.2483 93.2555 33.6595C93.3881 34.0041 93.495 34.3411 93.7373 34.604C94.1301 35.0303 94.9017 35.0283 95.3875 34.9761C95.8851 34.9225 96.2982 34.3168 96.6122 33.9233C97.1427 33.2584 97.6535 32.5812 98.2511 31.9947C99.0889 31.1725 100.152 30.6826 101.205 30.3826C102.574 29.9926 103.999 29.9286 105.401 30.066C105.802 30.1053 106.004 30.3116 106 30.7942C105.994 31.4847 105.575 32.1 105.293 32.678C104.983 33.3147 104.604 33.9502 104.059 34.3349C103.737 34.5626 103.264 34.796 102.889 34.6146C102.474 34.4142 102.106 33.9589 101.817 33.5803C101.544 33.2223 101.268 32.8468 101.047 32.4406C100.965 32.2894 100.856 32.1187 100.691 32.1187" stroke="black" stroke-width="3" stroke-linecap="round"/>
<path d="M40.5015 90.2838C37.173 86.1231 32.2647 83.5878 26.9544 83.5878C24.1844 83.5878 22.2651 83.8136 20.3358 86.0833C16.2102 90.937 14.3061 98.0334 12.5548 104.017C11.487 107.665 8.96499 110.701 8.27674 114.418C8.04807 115.652 8.13723 116.932 8.13723 118.184" stroke="black" stroke-width="3" stroke-linecap="round"/>
<path d="M81.7939 90.8418C82.82 88.4818 83.338 86.9069 85.421 85.3238C87.6964 83.5944 89.9442 81.0779 92.613 79.9607C94.1596 79.3133 95.0579 79.3634 96.6121 80.0227C98.8326 80.9647 103.107 81.6291 104.114 84.1458C105.365 87.2725 107.079 90.1496 108.268 93.3218C109.835 97.5003 111.516 101.598 112.608 105.939C113.905 111.092 113.705 116.305 114.375 121.532C114.519 122.65 114.86 123.264 114.437 124.322" stroke="black" stroke-width="3" stroke-linecap="round"/>
<path d="M41.0594 67.4056C40.5615 67.461 39.01 69.0315 39.6644 69.3587" stroke="black" stroke-width="3" stroke-linecap="round"/>
<path d="M43.5535 70C43.0557 70.0553 41.5041 71.6258 42.1585 71.953" stroke="black" stroke-width="3" stroke-linecap="round"/>
<path d="M77.0512 66.2896C75.8555 66.2896 74.7995 65.7316 73.7031 65.7316" stroke="black" stroke-width="3" stroke-linecap="round"/>
<path d="M74.8188 63.4996H76.7719" stroke="black" stroke-width="3" stroke-linecap="round"/>
<path d="M18 22C20.0364 22.3246 21.7676 24.0909 23.2543 25.4181C25.4622 27.3891 28.1146 29.3487 29.8914 31.7836C31.149 33.5071 32.2638 34.8006 34 36" stroke="#FFF511" stroke-width="3" stroke-linecap="round"/>
<path d="M34 7C34.5014 8.36275 35.6902 9.69886 36 11" stroke="#FFF511" stroke-width="3" stroke-linecap="round"/>
<path d="M39 17C41.6984 20.364 43.5884 23.8939 45 28" stroke="#FFF511" stroke-width="3" stroke-linecap="round"/>
<path d="M58 2C58 5.9892 58 9.98749 58 14" stroke="#FFF511" stroke-width="3" stroke-linecap="round"/>
<path d="M91 9C90.2125 9 88 13.6499 88 15" stroke="#FFF511" stroke-width="3" stroke-linecap="round"/>
<path d="M84 19C82.6571 20.5108 80.8964 22.2072 80 24" stroke="#FFF511" stroke-width="3" stroke-linecap="round"/>
<path d="M78 28C77.9008 29.0421 76.6178 30.4594 76 31" stroke="black" stroke-width="3" stroke-linecap="round"/>
<path d="M98 17C97.3235 17.0868 96.4679 18.6808 96.0676 19.1627C94.2478 21.3534 92.7659 23.7975 90.9275 25.9683C87.8272 29.6292 84.8309 33.1244 82 37" stroke="#FFF511" stroke-width="3" stroke-linecap="round"/>
<path d="M113 55C108.28 54.769 103.769 53 99 53" stroke="#FFF511" stroke-width="3" stroke-linecap="round"/>
<path d="M6 62C6.91754 62 9.76206 62 11 62" stroke="#FFF511" stroke-width="3" stroke-linecap="round"/>
</svg>
