<svg width="98" height="24" viewBox="0 0 98 24" fill="none" xmlns="http://www.w3.org/2000/svg">
<path d="M11 16.1627C11.1152 16.1627 11.2297 16.2065 11.3428 16.2261C12.1677 16.3688 13.0438 16.2894 13.8761 16.2894C15.9046 16.2894 17.9307 16.374 19.9592 16.374" stroke="#666666" stroke-width="2" stroke-linecap="round"/>
<path d="M15.6065 15.8668C15.6065 15.7438 15.5837 15.6357 15.5572 15.5147C15.4264 14.9181 15.3686 14.3141 15.313 13.7069C15.2151 12.6382 15.3051 11.5697 15.3106 10.4998C15.3136 9.93098 15.3529 9.36475 15.3529 8.79994C15.3529 8.40864 15.3529 8.01734 15.3529 7.62604" stroke="#666666" stroke-width="2" stroke-linecap="round"/>
<path d="M14.97 13.3042C15.2877 13.3042 15.6944 13.1113 15.9936 13.0178C16.5766 12.8356 17.1372 12.6254 17.7357 12.4919C18.146 12.4003 18.5617 12.3418 18.9213 12.142C19.0613 12.0643 19.3089 11.9755 19.4684 11.9542C19.6295 11.9327 19.8055 11.8251 19.9567 11.8251" stroke="#666666" stroke-width="2" stroke-linecap="round"/>
<path d="M35.6632 13.708C35.8792 13.708 36.0792 13.74 36.2632 13.804C36.4552 13.868 36.6232 13.96 36.7672 14.08C36.9112 14.192 37.0232 14.328 37.1032 14.488C37.1832 14.64 37.2232 14.812 37.2232 15.004V15.964C37.2232 16.132 37.1832 16.292 37.1032 16.444C37.0232 16.596 36.9152 16.728 36.7792 16.84C36.6432 16.96 36.4832 17.056 36.2992 17.128C36.1152 17.2 35.9192 17.236 35.7112 17.236H31.6312C31.0792 17.236 30.6552 17.136 30.3592 16.936C30.0712 16.736 29.9272 16.408 29.9272 15.952V15.04C29.9272 14.592 30.0792 14.26 30.3832 14.044C30.6872 13.82 31.0912 13.708 31.5952 13.708H35.6632ZM32.5912 7.684C32.6152 8.044 32.7072 8.444 32.8672 8.884C33.0352 9.324 33.2352 9.768 33.4672 10.216C33.6992 10.656 33.9472 11.08 34.2112 11.488C34.4752 11.888 34.7232 12.228 34.9552 12.508H33.1432C33.0232 12.364 32.8992 12.196 32.7712 12.004C32.6512 11.812 32.5312 11.608 32.4112 11.392C32.2912 11.168 32.1752 10.94 32.0632 10.708C31.9512 10.468 31.8472 10.232 31.7512 10C31.6472 10.208 31.5472 10.416 31.4512 10.624C31.3632 10.824 31.2632 11.028 31.1512 11.236C31.0472 11.444 30.9272 11.656 30.7912 11.872C30.6632 12.08 30.5152 12.292 30.3472 12.508H28.3192C28.7512 12.148 29.1272 11.724 29.4472 11.236C29.7752 10.74 30.0472 10.256 30.2632 9.784C30.4872 9.304 30.6592 8.872 30.7792 8.488C30.8992 8.104 30.9672 7.836 30.9832 7.684H32.5912ZM38.4592 10.624H37.1152V13.144H35.5792V7.252H37.1152V9.22H38.4592V10.624ZM32.0752 14.956C31.8432 14.956 31.6792 14.988 31.5832 15.052C31.4952 15.116 31.4512 15.22 31.4512 15.364V15.712C31.4512 15.8 31.4712 15.868 31.5112 15.916C31.5512 15.964 31.5992 15.996 31.6552 16.012C31.7192 16.036 31.7872 16.048 31.8592 16.048C31.9392 16.056 32.0192 16.06 32.0992 16.06H35.1712C35.3152 16.06 35.4592 16.032 35.6032 15.976C35.7472 15.912 35.8192 15.824 35.8192 15.712V15.34C35.8192 15.228 35.7632 15.136 35.6512 15.064C35.5392 14.992 35.3792 14.956 35.1712 14.956H32.0752ZM47.4025 7.36V17.236H45.8185V12.712H44.0785V11.068H45.8185V7.36H47.4025ZM43.9345 8.32V9.748C43.9345 10.284 43.8465 10.804 43.6705 11.308C43.5025 11.812 43.2825 12.292 43.0105 12.748C42.7385 13.196 42.4345 13.616 42.0985 14.008C41.7625 14.392 41.4345 14.74 41.1145 15.052C40.7945 15.356 40.4985 15.62 40.2265 15.844C39.9625 16.06 39.7585 16.22 39.6145 16.324V14.308C40.0305 13.98 40.3985 13.628 40.7185 13.252C41.0385 12.868 41.3065 12.48 41.5225 12.088C41.7465 11.688 41.9145 11.296 42.0265 10.912C42.1465 10.52 42.2145 10.156 42.2305 9.82H39.1825V8.32H43.9345ZM53.5479 9.532V8.188H48.1239V9.532H49.9839C49.9919 9.652 49.9959 9.824 49.9959 10.048C50.0039 10.264 49.9919 10.508 49.9599 10.78C49.9359 11.052 49.8879 11.336 49.8159 11.632C49.7519 11.92 49.6479 12.2 49.5039 12.472C49.3679 12.736 49.1879 12.976 48.9639 13.192C48.7399 13.408 48.4639 13.572 48.1359 13.684V15.076C48.5359 15.004 48.9119 14.876 49.2639 14.692C49.5679 14.532 49.8679 14.312 50.1639 14.032C50.4599 13.744 50.6839 13.36 50.8359 12.88C50.9079 13.104 50.9999 13.308 51.1119 13.492C51.2319 13.668 51.3599 13.828 51.4959 13.972C51.6399 14.116 51.7879 14.244 51.9399 14.356C52.0919 14.468 52.2439 14.564 52.3959 14.644C52.7479 14.836 53.1239 14.98 53.5239 15.076V13.684C53.1959 13.572 52.9199 13.408 52.6959 13.192C52.4719 12.976 52.2879 12.736 52.1439 12.472C51.9999 12.2 51.8879 11.92 51.8079 11.632C51.7359 11.336 51.6839 11.052 51.6519 10.78C51.6279 10.508 51.6159 10.264 51.6159 10.048C51.6159 9.824 51.6199 9.652 51.6279 9.532H53.5479ZM56.2119 17.344H54.6039V7.252H56.2119V17.344ZM57.9084 11.224V7.264H65.0724V8.236H59.4924V8.704H65.0724V9.82H59.4924V10.264H65.0724V11.224H57.9084ZM57.8604 13.84H65.1324V14.98C65.1244 15.276 65.0924 15.556 65.0364 15.82C64.9884 16.084 64.9324 16.316 64.8684 16.516C64.7964 16.748 64.7164 16.964 64.6284 17.164H63.1524C63.2884 16.9 63.3924 16.648 63.4644 16.408C63.5364 16.176 63.5884 15.972 63.6204 15.796C63.6524 15.588 63.6684 15.396 63.6684 15.22H57.8604V13.84ZM66.1524 13.06H56.9364V11.824H66.1524V13.06Z" fill="#666666"/>
<path d="M80.2575 16.6C79.9615 16.6 79.6775 16.56 79.4055 16.48C79.1335 16.408 78.8935 16.288 78.6855 16.12C78.4775 15.952 78.3095 15.732 78.1815 15.46C78.0615 15.188 78.0015 14.852 78.0015 14.452V10C78.0015 9.6 78.0895 9.264 78.2655 8.992C78.4415 8.712 78.6615 8.488 78.9255 8.32C79.1975 8.152 79.4895 8.032 79.8015 7.96C80.1135 7.88 80.4015 7.84 80.6655 7.84H81.2175C81.5455 7.84 81.8655 7.88 82.1775 7.96C82.4975 8.032 82.7815 8.156 83.0295 8.332C83.2855 8.5 83.4895 8.724 83.6415 9.004C83.8015 9.276 83.8815 9.612 83.8815 10.012V14.344C83.8815 14.672 83.8255 14.976 83.7135 15.256C83.6095 15.528 83.4535 15.764 83.2455 15.964C83.0455 16.164 82.7975 16.32 82.5015 16.432C82.2135 16.544 81.8815 16.6 81.5055 16.6H80.2575ZM80.5575 14.992H81.0615C81.1895 14.992 81.2975 14.964 81.3855 14.908C81.4735 14.844 81.5455 14.764 81.6015 14.668C81.6575 14.564 81.6935 14.452 81.7095 14.332C81.7335 14.204 81.7455 14.072 81.7455 13.936V10C81.7455 9.864 81.7335 9.732 81.7095 9.604C81.6855 9.476 81.6455 9.36 81.5895 9.256C81.5415 9.152 81.4735 9.072 81.3855 9.016C81.3055 8.952 81.2015 8.92 81.0735 8.92H80.5455C80.4095 8.92 80.2855 8.952 80.1735 9.016C80.0615 9.072 79.9615 9.152 79.8735 9.256C79.7855 9.36 79.7175 9.476 79.6695 9.604C79.6215 9.732 79.5975 9.864 79.5975 10V13.936C79.5975 14.072 79.5975 14.204 79.5975 14.332C79.5975 14.452 79.6215 14.564 79.6695 14.668C79.7255 14.764 79.8215 14.844 79.9575 14.908C80.0935 14.964 80.2935 14.992 80.5575 14.992Z" fill="#666666"/>
<rect x="0.5" y="0.5" width="96.9592" height="23" rx="4.5" stroke="#666666"/>
</svg>
