<svg width="32" height="32" viewBox="0 0 32 32" fill="none" xmlns="http://www.w3.org/2000/svg">
<path d="M6.96645 5.51597C6.96645 7.90353 5.7704 12.8825 9.42556 13.6948C12.6778 14.4175 13.8111 9.46347 13.1233 7.22824C12.7262 5.93749 12.2347 3.22079 10.4092 3.22079C8.57827 3.22079 7.29433 3.91408 7.29433 5.84385" stroke="black" stroke-width="2" stroke-linecap="round"/>
<path d="M9.58936 15.0245C9.58936 17.5148 9.26148 19.9068 9.26148 22.4019C9.26148 23.9904 8.93359 28.7447 8.93359 27.1562" stroke="black" stroke-width="2" stroke-linecap="round"/>
<path d="M16.4751 4.8602C16.4751 6.68099 16.4893 8.78683 17.313 10.4342C18.2211 12.2504 18.3486 12.2141 20.0818 12.9844C24.5615 14.9753 25 6.9207 25 4.53232" stroke="black" stroke-width="2" stroke-linecap="round"/>
<path d="M20.2896 4C20.2896 8.61538 20.2896 13.2308 20.2896 17.8462C20.2896 19.3903 20.2896 20.9345 20.2896 22.4786C20.2896 24.1784 19.2919 26.5203 21 28" stroke="black" stroke-width="2" stroke-linecap="round"/>
</svg>
