<svg width="106" height="112" viewBox="0 0 106 112" fill="none" xmlns="http://www.w3.org/2000/svg">
<path d="M29.2456 71.2039C26.7197 71.2039 25.1782 68.2476 24.1598 66.118C19.1482 55.6393 18.4231 43.5877 18.3473 32.1518C18.2629 19.4073 30.7347 9.99211 42.3235 7.99403C46.4453 7.28337 51.2454 6.8698 55.2803 8.26649C58.5251 9.38968 61.0507 12.614 63.3935 14.9568C70.534 22.0974 78.4058 29.6547 80.4674 39.8411C82.0948 47.8827 82.405 56.4911 77.0768 63.2724C75.2717 65.5698 73.7584 67.6118 71.446 69.4481C70.3327 70.3322 69.0997 71.2039 70.9314 71.2039C72.7194 71.2039 72.5486 70.6881 74.7458 71.7488C80.2539 74.4079 85.807 79.4906 89.3373 84.4331C94.267 91.3347 99.7678 97.9748 104.444 104.988" stroke="black" stroke-width="3" stroke-linecap="round"/>
<path d="M28.7007 71.7488C14.9671 80.1875 6.98783 94.9292 2 109.893" stroke="black" stroke-width="3" stroke-linecap="round"/>
<path d="M46.138 39.054C44.6437 40.7351 45.0482 45.6841 45.0482 47.8332C45.0482 49.9011 44.9361 52.4579 47.2278 53.2218" stroke="black" stroke-width="3" stroke-linecap="round"/>
<path d="M37.4194 39.054C38.0381 38.9767 38.2753 38.4322 38.5093 37.9642" stroke="black" stroke-width="3" stroke-linecap="round"/>
<path d="M52.1318 38.5091C52.1801 38.8955 52.5076 39.2606 52.6767 39.599" stroke="black" stroke-width="3" stroke-linecap="round"/>
<path d="M45.593 60.3056C47.2178 60.3056 48.8026 59.7607 50.4972 59.7607" stroke="black" stroke-width="3" stroke-linecap="round"/>
<path d="M25.9761 48.8625C28.8262 51.3959 32.3119 53.1574 33.6048 57.0362" stroke="black" stroke-width="3" stroke-linecap="round"/>
<path d="M62.4853 45.593C62.4853 48.4469 60.8506 51.324 60.8506 54.3116" stroke="black" stroke-width="3" stroke-linecap="round"/>
<path d="M41.2339 16.7126C44.4459 13.0991 40.4841 2 47.2279 2" stroke="black" stroke-width="3" stroke-linecap="round"/>
<path d="M54.8567 13.9881C54.8567 11.6185 55.2688 5.88078 57.5813 4.72456" stroke="black" stroke-width="3" stroke-linecap="round"/>
<path d="M61.3955 20.527C61.7695 17.5353 67.1834 15.4902 68.4794 12.8982" stroke="black" stroke-width="3" stroke-linecap="round"/>
</svg>
