<svg width="33" height="39" viewBox="0 0 33 39" fill="none" xmlns="http://www.w3.org/2000/svg">
<path d="M16.2399 35.47C16.3719 35.47 16.5009 35.494 16.6269 35.542C16.7589 35.584 16.8729 35.647 16.9689 35.731C17.0649 35.809 17.1429 35.905 17.2029 36.019C17.2629 36.133 17.2929 36.259 17.2929 36.397V37.135C17.2929 37.387 17.1999 37.594 17.0139 37.756C16.8339 37.924 16.6059 38.008 16.3299 38.008H12.8379C12.7599 38.008 12.6699 37.99 12.5679 37.954C12.4659 37.924 12.3639 37.873 12.2619 37.801C12.1659 37.735 12.0789 37.648 12.0009 37.54C11.9229 37.432 11.8719 37.3 11.8479 37.144V36.397C11.8719 36.235 11.9319 36.097 12.0279 35.983C12.1239 35.863 12.2349 35.767 12.3609 35.695C12.4869 35.617 12.6129 35.56 12.7389 35.524C12.8709 35.488 12.9879 35.47 13.0899 35.47H16.2399ZM11.6769 33.652H14.0979V34.57H10.6509V32.311H13.0899V31.789H10.6509V30.871H14.0079V33.031H11.6769V33.652ZM16.2939 30.439H17.3199V34.813H16.2939V33.292H15.6279V34.813H14.6019V30.439H15.6279V32.428H16.2939V30.439ZM15.8529 36.406H13.4589C13.2849 36.406 13.1709 36.436 13.1169 36.496C13.0629 36.55 13.0209 36.607 12.9909 36.667L12.9819 36.901C13.0359 37.021 13.0989 37.09 13.1709 37.108C13.2429 37.126 13.3389 37.135 13.4589 37.135H15.8619C15.9639 37.135 16.0509 37.117 16.1229 37.081C16.2009 37.045 16.2399 36.985 16.2399 36.901V36.73C16.2399 36.646 16.2009 36.571 16.1229 36.505C16.0509 36.439 15.9609 36.406 15.8529 36.406ZM17.8579 30.799H21.6469V31.456C21.6469 31.78 21.5509 32.116 21.3589 32.464C21.1669 32.806 20.9089 33.139 20.5849 33.463C20.2669 33.787 19.8979 34.087 19.4779 34.363C19.0639 34.633 18.6289 34.858 18.1729 35.038V33.976C18.8269 33.694 19.2679 33.406 19.4959 33.112H18.1279V32.266H20.0899C20.1799 32.146 20.2399 32.056 20.2699 31.996C20.3059 31.93 20.3389 31.852 20.3689 31.762H17.8579V30.799ZM23.1319 30.43H24.2299V34.669H23.1319V30.43ZM19.9729 35.425H23.1859C23.3479 35.425 23.4979 35.443 23.6359 35.479C23.7799 35.515 23.9029 35.572 24.0049 35.65C24.1129 35.728 24.1969 35.827 24.2569 35.947C24.3169 36.067 24.3469 36.211 24.3469 36.379V37.027C24.3469 37.333 24.2509 37.573 24.0589 37.747C23.8669 37.921 23.6089 38.008 23.2849 38.008H19.8919C19.5619 38.008 19.2979 37.915 19.0999 37.729C18.9079 37.549 18.8119 37.33 18.8119 37.072V36.388C18.8119 36.214 18.8479 36.067 18.9199 35.947C18.9979 35.821 19.0939 35.722 19.2079 35.65C19.3219 35.572 19.4449 35.515 19.5769 35.479C19.7149 35.443 19.8469 35.425 19.9729 35.425ZM22.8709 36.388H20.3779C20.2039 36.388 20.0929 36.415 20.0449 36.469C19.9969 36.517 19.9699 36.574 19.9639 36.64L19.9549 36.874C19.9549 36.94 19.9639 36.991 19.9819 37.027C20.0059 37.063 20.0389 37.087 20.0809 37.099C20.1229 37.117 20.1679 37.126 20.2159 37.126C20.2699 37.132 20.3269 37.135 20.3869 37.135H22.8889C22.9969 37.135 23.0899 37.111 23.1679 37.063C23.2459 37.015 23.2849 36.949 23.2849 36.865V36.694C23.2849 36.61 23.2459 36.538 23.1679 36.478C23.0899 36.418 22.9909 36.388 22.8709 36.388Z" fill="black"/>
<path d="M15.4968 16C12.5015 16 9.91953 13.3877 10.0019 10.3243C10.0828 7.31725 14.3821 2 17.5117 2C19.5084 2 22.5602 5.69218 23.3933 7.33934C24.1445 8.8247 24.2653 11.1609 23.3729 12.5946C21.2855 15.9486 18.5411 14.8649 15.4968 14.8649" stroke="black" stroke-width="3" stroke-linecap="round"/>
<path d="M16 7C16.1172 8.66066 17 10.3636 17 12" stroke="black" stroke-width="3" stroke-linecap="round"/>
<path d="M9.70041 16.1351C7.59391 16.1351 5.17088 15.7764 3.16349 16.5135C1.477 17.1328 2.011 22.2713 2.39321 23.6607C3.15999 26.4479 4.35228 29 7.45204 29C10.4802 29 12.5609 23.1371 11.8655 20.5916C11.1009 17.793 10.1475 15 7.07731 15" stroke="black" stroke-width="3" stroke-linecap="round"/>
<path d="M6 21.4459C7.49994 20.0453 9.91659 22.222 8.64055 24.137C7.4415 25.9364 5.15831 26 8.8376 26" stroke="black" stroke-width="3" stroke-linecap="round"/>
<path d="M22.5822 17.0983C19.3079 17.4627 18.5407 20.7753 19.2348 23.5976C20.2235 27.6174 23.058 28.7602 26.6735 27.5302C30.3332 26.2852 31.6777 21.9141 30.6821 18.2988C30.0874 16.1395 27.5768 13 25.1857 13" stroke="black" stroke-width="3" stroke-linecap="round"/>
<path d="M25.2527 19C26.7957 19.1437 26.6219 20.8446 26.4823 21.7806C26.4176 22.2146 25.8187 23.0367 25.4383 23.3556C25.1595 23.5892 23.8841 23.55 24.2784 23.55C28.2437 23.55 27.6379 26 24 26" stroke="black" stroke-width="3" stroke-linecap="round"/>
</svg>
