<svg width="13" height="14" viewBox="0 0 13 14" fill="none" xmlns="http://www.w3.org/2000/svg">
<path d="M7.70752 4.61263C8.76657 4.32173 9.99939 3.19919 10.8747 3.01987C10.5112 4.62819 9.49921 6.28641 9.77408 8.03129C10.0201 9.59321 12.1636 13.6968 8.16286 11.2276C6.30675 10.082 4.04411 9.14078 2.31345 7.89232C1.51029 7.31294 2.44603 7.13476 2.94393 6.50262C3.76475 5.46049 6.33767 4.9889 7.70752 4.61263Z" fill="#FF3A3A"/>
<path d="M11 3.00058C10.1199 3.08788 8.81815 4.30757 7.70752 4.61263C6.33767 4.9889 3.76475 5.46049 2.94393 6.50262C2.44603 7.13476 1.51029 7.31294 2.31345 7.89232C4.04411 9.14078 6.30675 10.082 8.16286 11.2276C12.1636 13.6968 10.0201 9.59321 9.77408 8.03129C9.44075 5.91527 11 3.92669 11 2" stroke="black" stroke-width="3" stroke-linecap="round"/>
</svg>
