<svg width="32" height="32" viewBox="0 0 32 32" fill="none" xmlns="http://www.w3.org/2000/svg">
<path d="M4.7921 12.6241C4.7921 14.7659 5.16976 16.8936 5.19829 19.0328C5.22955 21.3774 5.1181 23.8379 5.40138 26.175C5.48343 26.8519 5.425 27.9812 5.9881 28.488C6.16095 28.6436 6.54601 28.5759 6.75534 28.5896C7.72543 28.6527 8.69068 28.6383 9.66072 28.6742C11.2188 28.7319 12.7223 28.7309 14.2811 28.6742C15.4551 28.6315 16.5702 28.588 17.7224 28.7475C18.9169 28.9129 20.3545 28.8615 21.5474 28.6911C22.9728 28.4875 24.5178 28.6685 25.959 28.6685C26.1773 28.6685 27.0094 28.832 27.0309 28.4654C27.0527 28.0951 27.0238 27.7192 27.0309 27.3484C27.042 26.7707 27.1325 26.2068 27.1325 25.6165C27.1325 24.3064 26.8488 23.0451 26.6812 21.752C26.4786 20.1897 26.5232 18.6073 26.5232 17.0357C26.5232 16.4221 26.3201 15.8161 26.3201 15.1966C26.3201 14.2564 26.3201 13.3161 26.3201 12.3759C26.3201 12.0617 26.2769 11.8422 26.2242 11.5522C26.1446 11.1146 26.4137 10.7962 25.8631 10.7962C24.7874 10.7962 23.7458 10.9993 22.6644 10.9993C20.567 10.9993 18.5189 11.3269 16.4475 11.5071C14.3205 11.692 12.1824 11.6833 10.0613 11.9358C8.8894 12.0753 7.69285 12.3595 6.5184 12.4266C5.86202 12.4641 5.22144 12.6241 4.56644 12.6241C4.3852 12.6241 3.87817 12.587 3.87817 12.6241" stroke="black" stroke-width="2" stroke-linecap="round"/>
<path d="M10.5802 15.6705C10.3821 14.0857 10.6709 12.2567 10.6818 10.6044C10.6945 8.6893 11.6881 7.11284 13.243 6.04044C14.2302 5.35963 15.3831 5.75036 16.4136 6.12507C17.1079 6.37755 17.9316 7.23613 18.2471 7.90214C18.6561 8.76573 19.1566 9.41536 19.2118 10.4352C19.2846 11.7823 19.6179 13.0919 19.6179 14.4519" stroke="black" stroke-width="2" stroke-linecap="round"/>
</svg>
