<svg width="138" height="44" viewBox="0 0 138 44" fill="none" xmlns="http://www.w3.org/2000/svg">
<path d="M134.445 3.29284C126.852 1.99896 111.554 1.99691 103.881 2.55726C101.494 2.73158 98.8047 2.93965 96.4244 2.49039C94.4439 2.11658 89.7892 2.49039 87.8163 2.49039C85.6084 2.49039 80.9862 2 78.7463 2C77.3897 2 76.0331 2 74.6765 2C71.9729 2 12.1272 2 9.42363 2C8.43039 2 7.43716 2 6.44392 2C5.40337 2 5.16741 2.7061 4.36538 3.6049C2.30707 5.91158 2.48215 11.2405 2.15603 14.6163C1.7395 18.9279 2.27987 23.4032 2.35952 27.6785C2.41538 30.6768 3.91712 35.9072 5.23749 37.932C7.33447 41.1478 10.0802 40.8631 12.8249 41.5208C16.7695 42.4659 78.2991 41.7214 82.2639 41.7214C86.1601 41.7214 90.0267 41.3201 93.9211 41.3201C102.608 41.3201 111.296 41.3201 119.983 41.3201C122.41 41.3201 124.879 40.9189 127.207 40.9189C128.955 40.9189 130.779 40.0081 132.498 39.7152C133.332 39.5731 133.857 37.6499 134.445 36.9067C135.262 35.8749 135.217 34.8362 135.579 33.5185C136.274 30.9864 135.899 11.2698 135.899 8.5" stroke="black" stroke-width="3" stroke-linecap="round"/>
</svg>
