<svg width="353" height="166" viewBox="0 0 353 166" fill="none" xmlns="http://www.w3.org/2000/svg">
<path d="M3.29294 19.9468C3.29294 26.1678 2.52276 32.1953 2.41078 38.3729C2.29346 44.8456 1.64647 50.9433 1.64647 57.5C1.64647 62.1177 2.20234 66.7685 1.57764 71.3696C2.82573 86.6714 3.29294 101.773 3.29294 117.185C3.29294 127.065 1.64642 137.632 1.64642 147.512C1.64642 150.733 1.64642 153.955 1.64642 157.176C1.64642 158.678 1.64642 160.18 1.64642 161.682C1.64642 165.935 45.8258 163.034 53.3015 163.034C79.129 163.034 104.957 163.034 130.784 163.034C136.355 163.034 141.881 162.939 147.447 162.584C160.734 161.735 173.864 163.252 187.095 163.034C193.768 162.924 200.37 162.133 207.09 162.133C211.764 162.133 216.763 162.659 221.352 161.682C233.214 159.157 247.064 161.232 259.285 161.232C271.744 161.232 284.317 162.872 296.678 163.034C312.437 163.241 328.21 163.034 343.972 163.034C348.823 163.034 352.215 163.76 350.588 157.526C348.774 135.932 351.832 109.093 350.588 84.3079C349.728 67.1803 348.774 49.6521 348.774 32.4845C348.774 24.9291 347.892 17.0208 347.892 9.75231C347.892 -1.72535 328.184 2.72773 321.036 3.4581C300.005 5.60679 280.425 3.4581 259.285 3.4581C247.59 3.4581 233.171 4.26312 221.352 3.4581C210.357 2.70921 198.222 3.4581 187.095 3.4581C170.943 3.4581 153.896 3.4581 138 3.4581" stroke="black" stroke-width="3" stroke-linecap="round"/>
</svg>
