<svg width="137" height="130" viewBox="0 0 137 130" fill="none" xmlns="http://www.w3.org/2000/svg">
<path d="M60.2458 89.2039C57.72 89.2039 56.1785 86.2476 55.16 84.118C50.1484 73.6393 49.4233 61.5877 49.3476 50.1518C49.2632 37.4073 61.7349 27.9921 73.3237 25.994C77.4456 25.2834 82.2457 24.8698 86.2806 26.2665C89.5253 27.3897 92.0509 30.614 94.3937 32.9568C101.534 40.0974 109.406 47.6547 111.468 57.8411C113.095 65.8827 113.405 74.4911 108.077 81.2724C106.272 83.5698 104.759 85.6118 102.446 87.4481C101.333 88.3322 100.1 89.2039 101.932 89.2039C103.72 89.2039 103.549 88.6881 105.746 89.7488C111.254 92.4079 116.807 97.4906 120.338 102.433C125.267 109.335 130.768 115.975 135.444 122.988" stroke="black" stroke-width="3" stroke-linecap="round"/>
<path d="M59.7007 89.7488C45.9671 98.1875 37.9878 112.929 33 127.893" stroke="black" stroke-width="3" stroke-linecap="round"/>
<path d="M77.1382 57.054C75.644 58.7351 76.0484 63.6841 76.0484 65.8332C76.0484 67.9011 75.9364 70.4579 78.2281 71.2218" stroke="black" stroke-width="3" stroke-linecap="round"/>
<path d="M68.4194 57.054C69.0381 56.9767 69.2753 56.4322 69.5093 55.9642" stroke="black" stroke-width="3" stroke-linecap="round"/>
<path d="M83.1318 56.5091C83.1801 56.8955 83.5076 57.2606 83.6767 57.599" stroke="black" stroke-width="3" stroke-linecap="round"/>
<path d="M76.5933 78.3056C78.2181 78.3056 79.8029 77.7607 81.4975 77.7607" stroke="black" stroke-width="3" stroke-linecap="round"/>
<path d="M56.9761 66.8625C59.8262 69.3959 63.3119 71.1574 64.6048 75.0362" stroke="black" stroke-width="3" stroke-linecap="round"/>
<path d="M93.4853 63.593C93.4853 66.4469 91.8506 69.324 91.8506 72.3116" stroke="black" stroke-width="3" stroke-linecap="round"/>
<path d="M72.2339 34.7126C75.4459 31.0991 71.4841 20 78.2279 20" stroke="black" stroke-width="3" stroke-linecap="round"/>
<path d="M85.8564 31.9881C85.8564 29.6185 86.2686 23.8808 88.581 22.7246" stroke="black" stroke-width="3" stroke-linecap="round"/>
<path d="M92.3955 38.527C92.7695 35.5353 98.1834 33.4902 99.4794 30.8982" stroke="black" stroke-width="3" stroke-linecap="round"/>
<path d="M10.58 6.09826C13.5234 4.76506 15.6211 2.28298 19 2.28298H21.018C23.1175 2.28298 24.9776 1.64628 27.0469 2.28298C29.3966 3.00596 31.9992 3.58197 33.8136 5.39639C39.886 11.4688 42.9052 20.9247 35.3433 27.4063C33.0311 29.3882 30.5958 32.3794 27.8027 33.5611C26.5666 34.0841 25.6671 34.9496 24.2574 35.0008C23.2347 35.038 22.2036 35.0008 21.18 35.0008C19.2552 35.0008 17.7739 34.9242 15.979 34.155C13.5084 33.0962 11.5897 30.8086 9.21224 29.5119C3.89696 26.6126 3.26884 20.3553 3.77727 14.9886C4.15697 10.9806 6.89469 7.76748 10.58 6.09826Z" fill="#BDBDBD" stroke="black" stroke-width="3" stroke-linecap="round"/>
<path d="M10.652 32.4093C10.3094 34.4648 8.12629 36.9578 6.92669 38.5102C4.87056 41.171 3.43871 43.4671 2.37354 46.6626C2.20626 47.1645 1.61391 47.9584 2.39154 47.9584C4.13527 47.9584 5.90789 47.0974 7.57457 46.6626C9.33197 46.2042 11.0823 45.7188 12.8296 45.2229C12.9032 45.202 15.2903 44.1906 15.1151 44.791C14.7788 45.9442 14.7877 46.9801 15.1871 48.1384C15.5187 49.0999 17.2173 54.6172 18.6785 54.6172C19.08 54.6172 20.9297 52.428 21.18 52.1696C23.2728 50.0093 25.4426 47.8891 27.5688 45.7628C29.4312 43.9004 30.0174 42.0441 31.0602 39.698C31.6632 38.3411 32.3559 36.6688 32.3559 35.1628C32.3559 33.987 32.3473 32.0983 33.0038 31.1136" stroke="black" stroke-width="3" stroke-linecap="round"/>
<path d="M16.3088 14.5378C14.5817 14.3458 15.6024 11.7281 16.1993 10.8699C17.3702 9.18686 21.3422 9.14668 22.8849 10.2199C23.7576 10.8269 23.8677 12.6998 23.576 13.6208C22.7747 16.1513 21.0409 17.7882 19.3608 19.7384C18.5535 20.6754 17.6293 21.6287 16.9521 22.6671C16.8781 22.7806 16.4457 23.3105 16.4457 23.4678C16.4457 23.5437 16.5734 23.5238 16.6168 23.543C16.7598 23.6066 16.7887 23.796 16.9247 23.8715C17.0601 23.9467 17.3571 23.9096 17.5063 23.892C19.5866 23.6473 21.5846 23.1598 23.6992 23.1598C24.4981 23.1598 25.2514 23.168 26.0395 23.0367" stroke="black" stroke-width="3" stroke-linecap="round"/>
<path d="M26.6553 21.4354C26.6553 22.5979 27.148 23.5968 27.148 24.7611" stroke="black" stroke-width="3" stroke-linecap="round"/>
</svg>
