<svg width="137" height="130" viewBox="0 0 137 130" fill="none" xmlns="http://www.w3.org/2000/svg">
<path d="M60.2458 89.2039C57.72 89.2039 56.1785 86.2476 55.16 84.118C50.1484 73.6393 49.4233 61.5877 49.3476 50.1518C49.2632 37.4073 61.7349 27.9921 73.3237 25.994C77.4456 25.2834 82.2457 24.8698 86.2806 26.2665C89.5253 27.3897 92.0509 30.614 94.3937 32.9568C101.534 40.0974 109.406 47.6547 111.468 57.8411C113.095 65.8827 113.405 74.4911 108.077 81.2724C106.272 83.5698 104.759 85.6118 102.446 87.4481C101.333 88.3322 100.1 89.2039 101.932 89.2039C103.72 89.2039 103.549 88.6881 105.746 89.7488C111.254 92.4079 116.807 97.4906 120.338 102.433C125.267 109.335 130.768 115.975 135.444 122.988" stroke="black" stroke-width="3" stroke-linecap="round"/>
<path d="M59.7007 89.7488C45.9671 98.1875 37.9878 112.929 33 127.893" stroke="black" stroke-width="3" stroke-linecap="round"/>
<path d="M77.1382 57.054C75.644 58.7351 76.0484 63.6841 76.0484 65.8332C76.0484 67.9011 75.9364 70.4579 78.2281 71.2218" stroke="black" stroke-width="3" stroke-linecap="round"/>
<path d="M68.4194 57.054C69.0381 56.9767 69.2753 56.4322 69.5093 55.9642" stroke="black" stroke-width="3" stroke-linecap="round"/>
<path d="M83.1318 56.5091C83.1801 56.8955 83.5076 57.2606 83.6767 57.599" stroke="black" stroke-width="3" stroke-linecap="round"/>
<path d="M76.5933 78.3056C78.2181 78.3056 79.8029 77.7607 81.4975 77.7607" stroke="black" stroke-width="3" stroke-linecap="round"/>
<path d="M56.9761 66.8625C59.8262 69.3959 63.3119 71.1574 64.6048 75.0362" stroke="black" stroke-width="3" stroke-linecap="round"/>
<path d="M93.4853 63.593C93.4853 66.4469 91.8506 69.324 91.8506 72.3116" stroke="black" stroke-width="3" stroke-linecap="round"/>
<path d="M72.2339 34.7126C75.4459 31.0991 71.4841 20 78.2279 20" stroke="black" stroke-width="3" stroke-linecap="round"/>
<path d="M85.8564 31.9881C85.8564 29.6185 86.2686 23.8808 88.581 22.7246" stroke="black" stroke-width="3" stroke-linecap="round"/>
<path d="M92.3955 38.527C92.7695 35.5353 98.1834 33.4902 99.4794 30.8982" stroke="black" stroke-width="3" stroke-linecap="round"/>
<path d="M10.2989 6.23121C13.2252 4.86075 15.2912 2.35225 18.6698 2.30937L20.6877 2.28376C22.787 2.25711 24.6389 1.59686 26.7161 2.20724C29.0747 2.90034 31.6845 3.44327 33.5218 5.23453C39.6708 11.2294 42.8097 20.6462 35.3307 27.2232C33.0438 29.2343 30.6466 32.2562 27.8688 33.4733C26.6395 34.0119 25.751 34.8887 24.3421 34.9579C23.3199 35.008 22.2884 34.9839 21.2649 34.9969C19.3403 35.0213 17.8581 34.9636 16.0536 34.2172C13.5697 33.1898 11.6221 30.9268 9.22844 29.6603C3.87679 26.8287 3.1693 20.5799 3.60958 15.2072C3.93838 11.1947 6.63511 7.94707 10.2989 6.23121Z" fill="#DD945F" stroke="black" stroke-width="3" stroke-linecap="round"/>
<path d="M10.7048 32.5392C10.3884 34.5989 8.23708 37.1194 7.05727 38.6869C5.03509 41.3736 3.63249 43.6877 2.60796 46.8965C2.44706 47.4004 1.86484 48.2018 2.6424 48.1919C4.386 48.1698 6.14754 47.2864 7.80857 46.8305C9.56001 46.3497 11.3041 45.8421 13.0449 45.3242C13.1182 45.3023 15.4923 44.2606 15.3248 44.8633C15.0031 46.0207 15.0252 47.0564 15.4393 48.2095C15.783 49.1667 17.5515 54.662 19.0125 54.6434C19.414 54.6383 21.2358 52.4259 21.4828 52.1643C23.548 49.9776 25.6907 47.83 27.7898 45.677C29.6284 43.7911 30.191 41.9275 31.2039 39.5683C31.7896 38.2039 32.4611 36.5229 32.442 35.017C32.427 33.8413 32.3945 31.9529 33.0384 30.9599" stroke="black" stroke-width="3" stroke-linecap="round"/>
<path d="M17.3838 11.1575C17.7548 10.8529 18.5138 10.8306 18.9604 10.7315C20.3812 10.4161 22.1036 10.304 23.5499 10.5262C25.8158 10.8744 27.2085 13.2113 26.4397 15.3827C25.9304 16.8212 24.5852 17.6183 23.1432 17.6366C22.9873 17.6386 22.0115 17.7619 22.505 17.5467C22.6988 17.4622 22.9514 17.56 23.1358 17.6087C24.2791 17.9107 25.4935 18.0905 26.5917 18.5379C27.6742 18.9788 28.3419 20.7507 28.3559 21.8546C28.3839 24.0642 25.9486 24.4785 24.1808 24.9317C22.5411 25.352 21.5461 25.0787 19.9886 24.4529C19.3911 24.2128 17.9636 23.8323 17.6633 23.2503" stroke="black" stroke-width="3" stroke-linecap="round"/>
<path d="M21.4756 15.8937C21.4879 16.8619 21.752 17.8155 21.7643 18.7881" stroke="black" stroke-width="3" stroke-linecap="round"/>
</svg>
